<?xml version="1.0" encoding="UTF-8" standalone="no"?>
<!DOCTYPE svg PUBLIC "-//W3C//DTD SVG 1.1//EN"
 "http://www.w3.org/Graphics/SVG/1.1/DTD/svg11.dtd">
<!-- Generated by graphviz version 2.47.0 (20210316.0004)
 -->
<!-- Title: dbml Pages: 1 -->
<svg width="2365pt" height="2237pt"
 viewBox="0.00 0.00 2365.39 2236.63" xmlns="http://www.w3.org/2000/svg" xmlns:xlink="http://www.w3.org/1999/xlink">
<g id="graph0" class="graph" transform="scale(1 1) rotate(0) translate(4 2232.63)">
<title>dbml</title>
<!-- tabelaCategorias -->
<g id="tabelaCategorias" class="node">
<title>tabelaCategorias</title>
<ellipse fill="none" stroke="black" stroke-width="0" cx="2007.35" cy="-2038.09" rx="326.87" ry="172.57"/>
<polygon fill="#1d71b8" stroke="transparent" points="1778.35,-2098.09 1778.35,-2158.09 2236.35,-2158.09 2236.35,-2098.09 1778.35,-2098.09"/>
<polygon fill="none" stroke="#29235c" points="1778.35,-2098.09 1778.35,-2158.09 2236.35,-2158.09 2236.35,-2098.09 1778.35,-2098.09"/>
<text text-anchor="start" x="1824.18" y="-2119.29" font-family="Helvetica,sans-Serif" font-weight="bold" font-size="32.00" fill="#ffffff"> &#160;&#160;&#160;&#160;&#160;&#160;tabelaCategorias &#160;&#160;&#160;&#160;&#160;&#160;</text>
<polygon fill="#e7e2dd" stroke="transparent" points="1778.35,-2038.09 1778.35,-2098.09 2236.35,-2098.09 2236.35,-2038.09 1778.35,-2038.09"/>
<polygon fill="none" stroke="#29235c" points="1778.35,-2038.09 1778.35,-2098.09 2236.35,-2098.09 2236.35,-2038.09 1778.35,-2038.09"/>
<text text-anchor="start" x="1789.35" y="-2059.29" font-family="Helvetica,sans-Serif" font-weight="bold" font-size="32.00" fill="#29235c">idCategorias</text>
<text text-anchor="start" x="1968.93" y="-2059.29" font-family="Helvetica,sans-Serif" font-size="32.00" fill="#29235c"> &#160;&#160;&#160;</text>
<text text-anchor="start" x="2125.79" y="-2059.29" font-family="Helvetica,sans-Serif" font-style="italic" font-size="32.00" fill="#29235c">uuid</text>
<text text-anchor="start" x="2186.26" y="-2059.29" font-family="Helvetica,sans-Serif" font-size="32.00" fill="#29235c"> </text>
<text text-anchor="start" x="2195.15" y="-2059.29" font-family="Helvetica,sans-Serif" font-weight="bold" font-size="32.00" fill="#29235c">(!)</text>
<polygon fill="#e7e2dd" stroke="transparent" points="1778.35,-1978.09 1778.35,-2038.09 2236.35,-2038.09 2236.35,-1978.09 1778.35,-1978.09"/>
<polygon fill="none" stroke="#29235c" points="1778.35,-1978.09 1778.35,-2038.09 2236.35,-2038.09 2236.35,-1978.09 1778.35,-1978.09"/>
<text text-anchor="start" x="1788.89" y="-1998.29" font-family="Helvetica,sans-Serif" font-size="32.00" fill="#29235c">campoNome &#160;&#160;&#160;</text>
<text text-anchor="start" x="2005.13" y="-1999.29" font-family="Helvetica,sans-Serif" font-style="italic" font-size="32.00" fill="#29235c">varchar(255)</text>
<text text-anchor="start" x="2186.48" y="-1999.29" font-family="Helvetica,sans-Serif" font-size="32.00" fill="#29235c"> </text>
<text text-anchor="start" x="2195.37" y="-1999.29" font-family="Helvetica,sans-Serif" font-weight="bold" font-size="32.00" fill="#29235c">(!)</text>
<polygon fill="#e7e2dd" stroke="transparent" points="1778.35,-1918.09 1778.35,-1978.09 2236.35,-1978.09 2236.35,-1918.09 1778.35,-1918.09"/>
<polygon fill="none" stroke="#29235c" points="1778.35,-1918.09 1778.35,-1978.09 2236.35,-1978.09 2236.35,-1918.09 1778.35,-1918.09"/>
<text text-anchor="start" x="1789.35" y="-1938.29" font-family="Helvetica,sans-Serif" font-size="32.00" fill="#29235c">keyCategoriasPai &#160;&#160;&#160;</text>
<text text-anchor="start" x="2164.88" y="-1939.29" font-family="Helvetica,sans-Serif" font-style="italic" font-size="32.00" fill="#29235c">uuid</text>
<polygon fill="none" stroke="#29235c" stroke-width="2" points="1777.35,-1917.09 1777.35,-2159.09 2237.35,-2159.09 2237.35,-1917.09 1777.35,-1917.09"/>
</g>
<!-- tabelaCategorias&#45;&gt;tabelaCategorias -->
<!-- tabelaCategorias&#45;&gt;tabelaCategorias -->
<g id="edge2" class="edge">
<title>tabelaCategorias:e&#45;&gt;tabelaCategorias:w</title>
<path fill="none" stroke="#29235c" stroke-width="3" d="M2236.35,-1948.09C2424.35,-2011.6 2424.35,-2228.63 2007.35,-2228.63 1597.48,-2228.63 1590.47,-2134.89 1768.88,-2071.38"/>
<polygon fill="#29235c" stroke="#29235c" stroke-width="3" points="1770.05,-2074.68 1778.35,-2068.09 1767.76,-2068.06 1770.05,-2074.68"/>
<text text-anchor="middle" x="1787.25" y="-2077.69" font-family="Helvetica,sans-Serif" font-size="32.00" fill="#29235c">1</text>
<text text-anchor="middle" x="2242.57" y="-1957.69" font-family="Helvetica,sans-Serif" font-size="32.00" fill="#29235c">*</text>
</g>
<!-- tabelaCategoriasProdutos -->
<g id="tabelaCategoriasProdutos" class="node">
<title>tabelaCategoriasProdutos</title>
<ellipse fill="none" stroke="black" stroke-width="0" cx="1253.64" cy="-2068.09" rx="367.89" ry="130.22"/>
<polygon fill="#1d71b8" stroke="transparent" points="995.64,-2098.09 995.64,-2158.09 1511.64,-2158.09 1511.64,-2098.09 995.64,-2098.09"/>
<polygon fill="none" stroke="#29235c" points="995.64,-2098.09 995.64,-2158.09 1511.64,-2158.09 1511.64,-2098.09 995.64,-2098.09"/>
<text text-anchor="start" x="1006.45" y="-2119.29" font-family="Helvetica,sans-Serif" font-weight="bold" font-size="32.00" fill="#ffffff"> &#160;&#160;&#160;&#160;&#160;&#160;tabelaCategoriasProdutos &#160;&#160;&#160;&#160;&#160;&#160;</text>
<polygon fill="#e7e2dd" stroke="transparent" points="995.64,-2038.09 995.64,-2098.09 1511.64,-2098.09 1511.64,-2038.09 995.64,-2038.09"/>
<polygon fill="none" stroke="#29235c" points="995.64,-2038.09 995.64,-2098.09 1511.64,-2098.09 1511.64,-2038.09 995.64,-2038.09"/>
<text text-anchor="start" x="1006.64" y="-2059.29" font-family="Helvetica,sans-Serif" font-weight="bold" font-size="32.00" fill="#29235c">keyProdutos</text>
<text text-anchor="start" x="1184.47" y="-2059.29" font-family="Helvetica,sans-Serif" font-size="32.00" fill="#29235c"> &#160;&#160;&#160;</text>
<text text-anchor="start" x="1401.08" y="-2059.29" font-family="Helvetica,sans-Serif" font-style="italic" font-size="32.00" fill="#29235c">uuid</text>
<text text-anchor="start" x="1461.55" y="-2059.29" font-family="Helvetica,sans-Serif" font-size="32.00" fill="#29235c"> </text>
<text text-anchor="start" x="1470.44" y="-2059.29" font-family="Helvetica,sans-Serif" font-weight="bold" font-size="32.00" fill="#29235c">(!)</text>
<polygon fill="#e7e2dd" stroke="transparent" points="995.64,-1978.09 995.64,-2038.09 1511.64,-2038.09 1511.64,-1978.09 995.64,-1978.09"/>
<polygon fill="none" stroke="#29235c" points="995.64,-1978.09 995.64,-2038.09 1511.64,-2038.09 1511.64,-1978.09 995.64,-1978.09"/>
<text text-anchor="start" x="1006.64" y="-1999.29" font-family="Helvetica,sans-Serif" font-weight="bold" font-size="32.00" fill="#29235c">keyCategorias</text>
<text text-anchor="start" x="1211.12" y="-1999.29" font-family="Helvetica,sans-Serif" font-size="32.00" fill="#29235c"> &#160;&#160;&#160;</text>
<text text-anchor="start" x="1401.08" y="-1999.29" font-family="Helvetica,sans-Serif" font-style="italic" font-size="32.00" fill="#29235c">uuid</text>
<text text-anchor="start" x="1461.55" y="-1999.29" font-family="Helvetica,sans-Serif" font-size="32.00" fill="#29235c"> </text>
<text text-anchor="start" x="1470.44" y="-1999.29" font-family="Helvetica,sans-Serif" font-weight="bold" font-size="32.00" fill="#29235c">(!)</text>
<polygon fill="none" stroke="#29235c" stroke-width="2" points="994.64,-1977.09 994.64,-2159.09 1512.64,-2159.09 1512.64,-1977.09 994.64,-1977.09"/>
</g>
<!-- tabelaCategoriasProdutos&#45;&gt;tabelaCategorias -->
<!-- tabelaCategoriasProdutos&#45;&gt;tabelaCategorias -->
<g id="edge6" class="edge">
<title>tabelaCategoriasProdutos:e&#45;&gt;tabelaCategorias:w</title>
<path fill="none" stroke="#29235c" stroke-width="3" d="M1512.64,-2008.09C1629.86,-2008.09 1655.31,-2064.74 1767.33,-2067.95"/>
<polygon fill="#29235c" stroke="#29235c" stroke-width="3" points="1767.3,-2071.45 1777.35,-2068.09 1767.4,-2064.45 1767.3,-2071.45"/>
<text text-anchor="middle" x="1786.25" y="-2039.29" font-family="Helvetica,sans-Serif" font-size="32.00" fill="#29235c">1</text>
<text text-anchor="middle" x="1518.86" y="-2017.69" font-family="Helvetica,sans-Serif" font-size="32.00" fill="#29235c">*</text>
</g>
<!-- tabelaProdutos -->
<g id="tabelaProdutos" class="node">
<title>tabelaProdutos</title>
<ellipse fill="none" stroke="black" stroke-width="0" cx="2007.35" cy="-1548.09" rx="342.89" ry="299.63"/>
<polygon fill="#1d71b8" stroke="transparent" points="1767.35,-1698.09 1767.35,-1758.09 2248.35,-1758.09 2248.35,-1698.09 1767.35,-1698.09"/>
<polygon fill="none" stroke="#29235c" points="1767.35,-1698.09 1767.35,-1758.09 2248.35,-1758.09 2248.35,-1698.09 1767.35,-1698.09"/>
<text text-anchor="start" x="1838.01" y="-1719.29" font-family="Helvetica,sans-Serif" font-weight="bold" font-size="32.00" fill="#ffffff"> &#160;&#160;&#160;&#160;&#160;&#160;tabelaProdutos &#160;&#160;&#160;&#160;&#160;&#160;</text>
<polygon fill="#e7e2dd" stroke="transparent" points="1767.35,-1638.09 1767.35,-1698.09 2248.35,-1698.09 2248.35,-1638.09 1767.35,-1638.09"/>
<polygon fill="none" stroke="#29235c" points="1767.35,-1638.09 1767.35,-1698.09 2248.35,-1698.09 2248.35,-1638.09 1767.35,-1638.09"/>
<text text-anchor="start" x="1778.35" y="-1659.29" font-family="Helvetica,sans-Serif" font-weight="bold" font-size="32.00" fill="#29235c">idProdutos</text>
<text text-anchor="start" x="1931.28" y="-1659.29" font-family="Helvetica,sans-Serif" font-size="32.00" fill="#29235c"> &#160;&#160;&#160;</text>
<text text-anchor="start" x="2137.79" y="-1659.29" font-family="Helvetica,sans-Serif" font-style="italic" font-size="32.00" fill="#29235c">uuid</text>
<text text-anchor="start" x="2198.26" y="-1659.29" font-family="Helvetica,sans-Serif" font-size="32.00" fill="#29235c"> </text>
<text text-anchor="start" x="2207.15" y="-1659.29" font-family="Helvetica,sans-Serif" font-weight="bold" font-size="32.00" fill="#29235c">(!)</text>
<polygon fill="#e7e2dd" stroke="transparent" points="1767.35,-1578.09 1767.35,-1638.09 2248.35,-1638.09 2248.35,-1578.09 1767.35,-1578.09"/>
<polygon fill="none" stroke="#29235c" points="1767.35,-1578.09 1767.35,-1638.09 2248.35,-1638.09 2248.35,-1578.09 1767.35,-1578.09"/>
<text text-anchor="start" x="1778.35" y="-1598.29" font-family="Helvetica,sans-Serif" font-size="32.00" fill="#29235c">campoNome &#160;&#160;&#160;</text>
<text text-anchor="start" x="2016.92" y="-1599.29" font-family="Helvetica,sans-Serif" font-style="italic" font-size="32.00" fill="#29235c">varchar(255)</text>
<text text-anchor="start" x="2198.26" y="-1599.29" font-family="Helvetica,sans-Serif" font-size="32.00" fill="#29235c"> </text>
<text text-anchor="start" x="2207.15" y="-1599.29" font-family="Helvetica,sans-Serif" font-weight="bold" font-size="32.00" fill="#29235c">(!)</text>
<polygon fill="#e7e2dd" stroke="transparent" points="1767.35,-1518.09 1767.35,-1578.09 2248.35,-1578.09 2248.35,-1518.09 1767.35,-1518.09"/>
<polygon fill="none" stroke="#29235c" points="1767.35,-1518.09 1767.35,-1578.09 2248.35,-1578.09 2248.35,-1518.09 1767.35,-1518.09"/>
<text text-anchor="start" x="1778.35" y="-1538.29" font-family="Helvetica,sans-Serif" font-size="32.00" fill="#29235c">campoDescricao &#160;&#160;&#160;</text>
<text text-anchor="start" x="2185.78" y="-1539.29" font-family="Helvetica,sans-Serif" font-style="italic" font-size="32.00" fill="#29235c">text</text>
<polygon fill="#e7e2dd" stroke="transparent" points="1767.35,-1458.09 1767.35,-1518.09 2248.35,-1518.09 2248.35,-1458.09 1767.35,-1458.09"/>
<polygon fill="none" stroke="#29235c" points="1767.35,-1458.09 1767.35,-1518.09 2248.35,-1518.09 2248.35,-1458.09 1767.35,-1458.09"/>
<text text-anchor="start" x="1778.35" y="-1478.29" font-family="Helvetica,sans-Serif" font-size="32.00" fill="#29235c">campoSlug &#160;&#160;&#160;</text>
<text text-anchor="start" x="2016.92" y="-1479.29" font-family="Helvetica,sans-Serif" font-style="italic" font-size="32.00" fill="#29235c">varchar(255)</text>
<text text-anchor="start" x="2198.26" y="-1479.29" font-family="Helvetica,sans-Serif" font-size="32.00" fill="#29235c"> </text>
<text text-anchor="start" x="2207.15" y="-1479.29" font-family="Helvetica,sans-Serif" font-weight="bold" font-size="32.00" fill="#29235c">(!)</text>
<polygon fill="#e7e2dd" stroke="transparent" points="1767.35,-1398.09 1767.35,-1458.09 2248.35,-1458.09 2248.35,-1398.09 1767.35,-1398.09"/>
<polygon fill="none" stroke="#29235c" points="1767.35,-1398.09 1767.35,-1458.09 2248.35,-1458.09 2248.35,-1398.09 1767.35,-1398.09"/>
<text text-anchor="start" x="1778.35" y="-1418.29" font-family="Helvetica,sans-Serif" font-size="32.00" fill="#29235c">campoAtivo &#160;&#160;&#160;</text>
<text text-anchor="start" x="2084.43" y="-1419.29" font-family="Helvetica,sans-Serif" font-style="italic" font-size="32.00" fill="#29235c">boolean</text>
<text text-anchor="start" x="2198.26" y="-1419.29" font-family="Helvetica,sans-Serif" font-size="32.00" fill="#29235c"> </text>
<text text-anchor="start" x="2207.15" y="-1419.29" font-family="Helvetica,sans-Serif" font-weight="bold" font-size="32.00" fill="#29235c">(!)</text>
<polygon fill="#e7e2dd" stroke="transparent" points="1767.35,-1338.09 1767.35,-1398.09 2248.35,-1398.09 2248.35,-1338.09 1767.35,-1338.09"/>
<polygon fill="none" stroke="#29235c" points="1767.35,-1338.09 1767.35,-1398.09 2248.35,-1398.09 2248.35,-1338.09 1767.35,-1338.09"/>
<text text-anchor="start" x="1777.95" y="-1358.29" font-family="Helvetica,sans-Serif" font-size="32.00" fill="#29235c">campoCriadoEm &#160;&#160;&#160;</text>
<text text-anchor="start" x="2051.03" y="-1359.29" font-family="Helvetica,sans-Serif" font-style="italic" font-size="32.00" fill="#29235c">timestamp</text>
<text text-anchor="start" x="2198.58" y="-1359.29" font-family="Helvetica,sans-Serif" font-size="32.00" fill="#29235c"> </text>
<text text-anchor="start" x="2207.48" y="-1359.29" font-family="Helvetica,sans-Serif" font-weight="bold" font-size="32.00" fill="#29235c">(!)</text>
<polygon fill="none" stroke="#29235c" stroke-width="2" points="1765.85,-1337.09 1765.85,-1759.09 2248.85,-1759.09 2248.85,-1337.09 1765.85,-1337.09"/>
</g>
<!-- tabelaCategoriasProdutos&#45;&gt;tabelaProdutos -->
<!-- tabelaCategoriasProdutos&#45;&gt;tabelaProdutos -->
<g id="edge4" class="edge">
<title>tabelaCategoriasProdutos:e&#45;&gt;tabelaProdutos:w</title>
<path fill="none" stroke="#29235c" stroke-width="3" d="M1512.64,-2068.09C1719.67,-2068.09 1561.28,-1681.26 1756.18,-1668.42"/>
<polygon fill="#29235c" stroke="#29235c" stroke-width="3" points="1756.47,-1671.91 1766.35,-1668.09 1756.24,-1664.92 1756.47,-1671.91"/>
<text text-anchor="middle" x="1775.25" y="-1677.69" font-family="Helvetica,sans-Serif" font-size="32.00" fill="#29235c">1</text>
<text text-anchor="middle" x="1518.86" y="-2077.69" font-family="Helvetica,sans-Serif" font-size="32.00" fill="#29235c">*</text>
</g>
<!-- tabelaImagens -->
<g id="tabelaImagens" class="node">
<title>tabelaImagens</title>
<ellipse fill="none" stroke="black" stroke-width="0" cx="1253.64" cy="-1620.09" rx="302.78" ry="299.63"/>
<polygon fill="#1d71b8" stroke="transparent" points="1041.64,-1770.09 1041.64,-1830.09 1465.64,-1830.09 1465.64,-1770.09 1041.64,-1770.09"/>
<polygon fill="none" stroke="#29235c" points="1041.64,-1770.09 1041.64,-1830.09 1465.64,-1830.09 1465.64,-1770.09 1041.64,-1770.09"/>
<text text-anchor="start" x="1086.46" y="-1791.29" font-family="Helvetica,sans-Serif" font-weight="bold" font-size="32.00" fill="#ffffff"> &#160;&#160;&#160;&#160;&#160;&#160;tabelaImagens &#160;&#160;&#160;&#160;&#160;&#160;</text>
<polygon fill="#e7e2dd" stroke="transparent" points="1041.64,-1710.09 1041.64,-1770.09 1465.64,-1770.09 1465.64,-1710.09 1041.64,-1710.09"/>
<polygon fill="none" stroke="#29235c" points="1041.64,-1710.09 1041.64,-1770.09 1465.64,-1770.09 1465.64,-1710.09 1041.64,-1710.09"/>
<text text-anchor="start" x="1052.64" y="-1731.29" font-family="Helvetica,sans-Serif" font-weight="bold" font-size="32.00" fill="#29235c">idImagens</text>
<text text-anchor="start" x="1200.23" y="-1731.29" font-family="Helvetica,sans-Serif" font-size="32.00" fill="#29235c"> &#160;&#160;&#160;</text>
<text text-anchor="start" x="1355.08" y="-1731.29" font-family="Helvetica,sans-Serif" font-style="italic" font-size="32.00" fill="#29235c">uuid</text>
<text text-anchor="start" x="1415.55" y="-1731.29" font-family="Helvetica,sans-Serif" font-size="32.00" fill="#29235c"> </text>
<text text-anchor="start" x="1424.44" y="-1731.29" font-family="Helvetica,sans-Serif" font-weight="bold" font-size="32.00" fill="#29235c">(!)</text>
<polygon fill="#e7e2dd" stroke="transparent" points="1041.64,-1650.09 1041.64,-1710.09 1465.64,-1710.09 1465.64,-1650.09 1041.64,-1650.09"/>
<polygon fill="none" stroke="#29235c" points="1041.64,-1650.09 1041.64,-1710.09 1465.64,-1710.09 1465.64,-1650.09 1041.64,-1650.09"/>
<text text-anchor="start" x="1052.64" y="-1670.29" font-family="Helvetica,sans-Serif" font-size="32.00" fill="#29235c">campoNome &#160;&#160;&#160;</text>
<text text-anchor="start" x="1363.97" y="-1671.29" font-family="Helvetica,sans-Serif" font-style="italic" font-size="32.00" fill="#29235c">text</text>
<text text-anchor="start" x="1415.55" y="-1671.29" font-family="Helvetica,sans-Serif" font-size="32.00" fill="#29235c"> </text>
<text text-anchor="start" x="1424.44" y="-1671.29" font-family="Helvetica,sans-Serif" font-weight="bold" font-size="32.00" fill="#29235c">(!)</text>
<polygon fill="#e7e2dd" stroke="transparent" points="1041.64,-1590.09 1041.64,-1650.09 1465.64,-1650.09 1465.64,-1590.09 1041.64,-1590.09"/>
<polygon fill="none" stroke="#29235c" points="1041.64,-1590.09 1041.64,-1650.09 1465.64,-1650.09 1465.64,-1590.09 1041.64,-1590.09"/>
<text text-anchor="start" x="1052.27" y="-1610.29" font-family="Helvetica,sans-Serif" font-size="32.00" fill="#29235c">campoTamanho &#160;&#160;&#160;</text>
<text text-anchor="start" x="1318.19" y="-1611.29" font-family="Helvetica,sans-Serif" font-style="italic" font-size="32.00" fill="#29235c">integer</text>
<text text-anchor="start" x="1415.99" y="-1611.29" font-family="Helvetica,sans-Serif" font-size="32.00" fill="#29235c"> </text>
<text text-anchor="start" x="1424.89" y="-1611.29" font-family="Helvetica,sans-Serif" font-weight="bold" font-size="32.00" fill="#29235c">(!)</text>
<polygon fill="#e7e2dd" stroke="transparent" points="1041.64,-1530.09 1041.64,-1590.09 1465.64,-1590.09 1465.64,-1530.09 1041.64,-1530.09"/>
<polygon fill="none" stroke="#29235c" points="1041.64,-1530.09 1041.64,-1590.09 1465.64,-1590.09 1465.64,-1530.09 1041.64,-1530.09"/>
<text text-anchor="start" x="1052.64" y="-1550.29" font-family="Helvetica,sans-Serif" font-size="32.00" fill="#29235c">campoTipo &#160;&#160;&#160;</text>
<text text-anchor="start" x="1363.97" y="-1551.29" font-family="Helvetica,sans-Serif" font-style="italic" font-size="32.00" fill="#29235c">text</text>
<text text-anchor="start" x="1415.55" y="-1551.29" font-family="Helvetica,sans-Serif" font-size="32.00" fill="#29235c"> </text>
<text text-anchor="start" x="1424.44" y="-1551.29" font-family="Helvetica,sans-Serif" font-weight="bold" font-size="32.00" fill="#29235c">(!)</text>
<polygon fill="#e7e2dd" stroke="transparent" points="1041.64,-1470.09 1041.64,-1530.09 1465.64,-1530.09 1465.64,-1470.09 1041.64,-1470.09"/>
<polygon fill="none" stroke="#29235c" points="1041.64,-1470.09 1041.64,-1530.09 1465.64,-1530.09 1465.64,-1470.09 1041.64,-1470.09"/>
<text text-anchor="start" x="1052.64" y="-1490.29" font-family="Helvetica,sans-Serif" font-size="32.00" fill="#29235c">keyProdutos &#160;&#160;&#160;</text>
<text text-anchor="start" x="1355.08" y="-1491.29" font-family="Helvetica,sans-Serif" font-style="italic" font-size="32.00" fill="#29235c">uuid</text>
<text text-anchor="start" x="1415.55" y="-1491.29" font-family="Helvetica,sans-Serif" font-size="32.00" fill="#29235c"> </text>
<text text-anchor="start" x="1424.44" y="-1491.29" font-family="Helvetica,sans-Serif" font-weight="bold" font-size="32.00" fill="#29235c">(!)</text>
<polygon fill="#e7e2dd" stroke="transparent" points="1041.64,-1410.09 1041.64,-1470.09 1465.64,-1470.09 1465.64,-1410.09 1041.64,-1410.09"/>
<polygon fill="none" stroke="#29235c" points="1041.64,-1410.09 1041.64,-1470.09 1465.64,-1470.09 1465.64,-1410.09 1041.64,-1410.09"/>
<text text-anchor="start" x="1052.64" y="-1430.29" font-family="Helvetica,sans-Serif" font-size="32.00" fill="#29235c">campoOrdem &#160;&#160;&#160;</text>
<text text-anchor="start" x="1317.75" y="-1431.29" font-family="Helvetica,sans-Serif" font-style="italic" font-size="32.00" fill="#29235c">integer</text>
<text text-anchor="start" x="1415.55" y="-1431.29" font-family="Helvetica,sans-Serif" font-size="32.00" fill="#29235c"> </text>
<text text-anchor="start" x="1424.44" y="-1431.29" font-family="Helvetica,sans-Serif" font-weight="bold" font-size="32.00" fill="#29235c">(!)</text>
<polygon fill="none" stroke="#29235c" stroke-width="2" points="1040.64,-1409.09 1040.64,-1831.09 1466.64,-1831.09 1466.64,-1409.09 1040.64,-1409.09"/>
</g>
<!-- tabelaImagens&#45;&gt;tabelaProdutos -->
<!-- tabelaImagens&#45;&gt;tabelaProdutos -->
<g id="edge8" class="edge">
<title>tabelaImagens:e&#45;&gt;tabelaProdutos:w</title>
<path fill="none" stroke="#29235c" stroke-width="3" d="M1466.64,-1500.09C1615.91,-1500.09 1613.82,-1660.63 1756.3,-1667.84"/>
<polygon fill="#29235c" stroke="#29235c" stroke-width="3" points="1756.27,-1671.34 1766.35,-1668.09 1756.44,-1664.34 1756.27,-1671.34"/>
<text text-anchor="middle" x="1775.25" y="-1639.29" font-family="Helvetica,sans-Serif" font-size="32.00" fill="#29235c">1</text>
<text text-anchor="middle" x="1472.86" y="-1509.69" font-family="Helvetica,sans-Serif" font-size="32.00" fill="#29235c">*</text>
</g>
<!-- tabelaPedidosItens -->
<g id="tabelaPedidosItens" class="node">
<title>tabelaPedidosItens</title>
<ellipse fill="none" stroke="black" stroke-width="0" cx="421.44" cy="-862.09" rx="421.37" ry="257.27"/>
<polygon fill="#1d71b8" stroke="transparent" points="125.44,-982.09 125.44,-1042.09 717.44,-1042.09 717.44,-982.09 125.44,-982.09"/>
<polygon fill="none" stroke="#29235c" points="125.44,-982.09 125.44,-1042.09 717.44,-1042.09 717.44,-982.09 125.44,-982.09"/>
<text text-anchor="start" x="223.13" y="-1003.29" font-family="Helvetica,sans-Serif" font-weight="bold" font-size="32.00" fill="#ffffff"> &#160;&#160;&#160;&#160;&#160;&#160;tabelaPedidosItens &#160;&#160;&#160;&#160;&#160;&#160;</text>
<polygon fill="#e7e2dd" stroke="transparent" points="125.44,-922.09 125.44,-982.09 717.44,-982.09 717.44,-922.09 125.44,-922.09"/>
<polygon fill="none" stroke="#29235c" points="125.44,-922.09 125.44,-982.09 717.44,-982.09 717.44,-922.09 125.44,-922.09"/>
<text text-anchor="start" x="136.44" y="-943.29" font-family="Helvetica,sans-Serif" font-weight="bold" font-size="32.00" fill="#29235c">idItens</text>
<text text-anchor="start" x="230.69" y="-943.29" font-family="Helvetica,sans-Serif" font-size="32.00" fill="#29235c"> &#160;&#160;&#160;</text>
<text text-anchor="start" x="606.88" y="-943.29" font-family="Helvetica,sans-Serif" font-style="italic" font-size="32.00" fill="#29235c">uuid</text>
<text text-anchor="start" x="667.34" y="-943.29" font-family="Helvetica,sans-Serif" font-size="32.00" fill="#29235c"> </text>
<text text-anchor="start" x="676.24" y="-943.29" font-family="Helvetica,sans-Serif" font-weight="bold" font-size="32.00" fill="#29235c">(!)</text>
<polygon fill="#e7e2dd" stroke="transparent" points="125.44,-862.09 125.44,-922.09 717.44,-922.09 717.44,-862.09 125.44,-862.09"/>
<polygon fill="none" stroke="#29235c" points="125.44,-862.09 125.44,-922.09 717.44,-922.09 717.44,-862.09 125.44,-862.09"/>
<text text-anchor="start" x="136.44" y="-882.29" font-family="Helvetica,sans-Serif" font-size="32.00" fill="#29235c">keyPedidos &#160;&#160;&#160;</text>
<text text-anchor="start" x="606.88" y="-883.29" font-family="Helvetica,sans-Serif" font-style="italic" font-size="32.00" fill="#29235c">uuid</text>
<text text-anchor="start" x="667.34" y="-883.29" font-family="Helvetica,sans-Serif" font-size="32.00" fill="#29235c"> </text>
<text text-anchor="start" x="676.24" y="-883.29" font-family="Helvetica,sans-Serif" font-weight="bold" font-size="32.00" fill="#29235c">(!)</text>
<polygon fill="#e7e2dd" stroke="transparent" points="125.44,-802.09 125.44,-862.09 717.44,-862.09 717.44,-802.09 125.44,-802.09"/>
<polygon fill="none" stroke="#29235c" points="125.44,-802.09 125.44,-862.09 717.44,-862.09 717.44,-802.09 125.44,-802.09"/>
<text text-anchor="start" x="136.44" y="-822.29" font-family="Helvetica,sans-Serif" font-size="32.00" fill="#29235c">keyVariantes &#160;&#160;&#160;</text>
<text text-anchor="start" x="645.97" y="-823.29" font-family="Helvetica,sans-Serif" font-style="italic" font-size="32.00" fill="#29235c">uuid</text>
<polygon fill="#e7e2dd" stroke="transparent" points="125.44,-742.09 125.44,-802.09 717.44,-802.09 717.44,-742.09 125.44,-742.09"/>
<polygon fill="none" stroke="#29235c" points="125.44,-742.09 125.44,-802.09 717.44,-802.09 717.44,-742.09 125.44,-742.09"/>
<text text-anchor="start" x="136.25" y="-762.29" font-family="Helvetica,sans-Serif" font-size="32.00" fill="#29235c">campoPrecoUnitario &#160;&#160;&#160;</text>
<text text-anchor="start" x="461.27" y="-763.29" font-family="Helvetica,sans-Serif" font-style="italic" font-size="32.00" fill="#29235c">numeric(12, 2)</text>
<text text-anchor="start" x="667.51" y="-763.29" font-family="Helvetica,sans-Serif" font-size="32.00" fill="#29235c"> </text>
<text text-anchor="start" x="676.4" y="-763.29" font-family="Helvetica,sans-Serif" font-weight="bold" font-size="32.00" fill="#29235c">(!)</text>
<polygon fill="#e7e2dd" stroke="transparent" points="125.44,-682.09 125.44,-742.09 717.44,-742.09 717.44,-682.09 125.44,-682.09"/>
<polygon fill="none" stroke="#29235c" points="125.44,-682.09 125.44,-742.09 717.44,-742.09 717.44,-682.09 125.44,-682.09"/>
<text text-anchor="start" x="136.44" y="-702.29" font-family="Helvetica,sans-Serif" font-size="32.00" fill="#29235c">campoQuantidade &#160;&#160;&#160;</text>
<text text-anchor="start" x="569.54" y="-703.29" font-family="Helvetica,sans-Serif" font-style="italic" font-size="32.00" fill="#29235c">integer</text>
<text text-anchor="start" x="667.34" y="-703.29" font-family="Helvetica,sans-Serif" font-size="32.00" fill="#29235c"> </text>
<text text-anchor="start" x="676.24" y="-703.29" font-family="Helvetica,sans-Serif" font-weight="bold" font-size="32.00" fill="#29235c">(!)</text>
<polygon fill="none" stroke="#29235c" stroke-width="2" points="124.44,-681.09 124.44,-1043.09 718.44,-1043.09 718.44,-681.09 124.44,-681.09"/>
</g>
<!-- tabelaPedidos -->
<g id="tabelaPedidos" class="node">
<title>tabelaPedidos</title>
<ellipse fill="none" stroke="black" stroke-width="0" cx="1253.64" cy="-1087.09" rx="342.89" ry="214.92"/>
<polygon fill="#1d71b8" stroke="transparent" points="1013.64,-1177.09 1013.64,-1237.09 1494.64,-1237.09 1494.64,-1177.09 1013.64,-1177.09"/>
<polygon fill="none" stroke="#29235c" points="1013.64,-1177.09 1013.64,-1237.09 1494.64,-1237.09 1494.64,-1177.09 1013.64,-1177.09"/>
<text text-anchor="start" x="1090.52" y="-1198.29" font-family="Helvetica,sans-Serif" font-weight="bold" font-size="32.00" fill="#ffffff"> &#160;&#160;&#160;&#160;&#160;&#160;tabelaPedidos &#160;&#160;&#160;&#160;&#160;&#160;</text>
<polygon fill="#e7e2dd" stroke="transparent" points="1013.64,-1117.09 1013.64,-1177.09 1494.64,-1177.09 1494.64,-1117.09 1013.64,-1117.09"/>
<polygon fill="none" stroke="#29235c" points="1013.64,-1117.09 1013.64,-1177.09 1494.64,-1177.09 1494.64,-1117.09 1013.64,-1117.09"/>
<text text-anchor="start" x="1024.64" y="-1138.29" font-family="Helvetica,sans-Serif" font-weight="bold" font-size="32.00" fill="#29235c">idPedidos</text>
<text text-anchor="start" x="1165.12" y="-1138.29" font-family="Helvetica,sans-Serif" font-size="32.00" fill="#29235c"> &#160;&#160;&#160;</text>
<text text-anchor="start" x="1384.08" y="-1138.29" font-family="Helvetica,sans-Serif" font-style="italic" font-size="32.00" fill="#29235c">uuid</text>
<text text-anchor="start" x="1444.55" y="-1138.29" font-family="Helvetica,sans-Serif" font-size="32.00" fill="#29235c"> </text>
<text text-anchor="start" x="1453.44" y="-1138.29" font-family="Helvetica,sans-Serif" font-weight="bold" font-size="32.00" fill="#29235c">(!)</text>
<polygon fill="#e7e2dd" stroke="transparent" points="1013.64,-1057.09 1013.64,-1117.09 1494.64,-1117.09 1494.64,-1057.09 1013.64,-1057.09"/>
<polygon fill="none" stroke="#29235c" points="1013.64,-1057.09 1013.64,-1117.09 1494.64,-1117.09 1494.64,-1057.09 1013.64,-1057.09"/>
<text text-anchor="start" x="1024.64" y="-1077.29" font-family="Helvetica,sans-Serif" font-size="32.00" fill="#29235c">campoStatus &#160;&#160;&#160;</text>
<text text-anchor="start" x="1280.99" y="-1078.29" font-family="Helvetica,sans-Serif" font-style="italic" font-size="32.00" fill="#29235c">varchar(50)</text>
<text text-anchor="start" x="1444.55" y="-1078.29" font-family="Helvetica,sans-Serif" font-size="32.00" fill="#29235c"> </text>
<text text-anchor="start" x="1453.44" y="-1078.29" font-family="Helvetica,sans-Serif" font-weight="bold" font-size="32.00" fill="#29235c">(!)</text>
<polygon fill="#e7e2dd" stroke="transparent" points="1013.64,-997.09 1013.64,-1057.09 1494.64,-1057.09 1494.64,-997.09 1013.64,-997.09"/>
<polygon fill="none" stroke="#29235c" points="1013.64,-997.09 1013.64,-1057.09 1494.64,-1057.09 1494.64,-997.09 1013.64,-997.09"/>
<text text-anchor="start" x="1024.64" y="-1017.29" font-family="Helvetica,sans-Serif" font-size="32.00" fill="#29235c">campoTotal &#160;&#160;&#160;</text>
<text text-anchor="start" x="1238.32" y="-1018.29" font-family="Helvetica,sans-Serif" font-style="italic" font-size="32.00" fill="#29235c">numeric(12, 2)</text>
<text text-anchor="start" x="1444.55" y="-1018.29" font-family="Helvetica,sans-Serif" font-size="32.00" fill="#29235c"> </text>
<text text-anchor="start" x="1453.44" y="-1018.29" font-family="Helvetica,sans-Serif" font-weight="bold" font-size="32.00" fill="#29235c">(!)</text>
<polygon fill="#e7e2dd" stroke="transparent" points="1013.64,-937.09 1013.64,-997.09 1494.64,-997.09 1494.64,-937.09 1013.64,-937.09"/>
<polygon fill="none" stroke="#29235c" points="1013.64,-937.09 1013.64,-997.09 1494.64,-997.09 1494.64,-937.09 1013.64,-937.09"/>
<text text-anchor="start" x="1024.24" y="-957.29" font-family="Helvetica,sans-Serif" font-size="32.00" fill="#29235c">campoCriadoEm &#160;&#160;&#160;</text>
<text text-anchor="start" x="1297.31" y="-958.29" font-family="Helvetica,sans-Serif" font-style="italic" font-size="32.00" fill="#29235c">timestamp</text>
<text text-anchor="start" x="1444.87" y="-958.29" font-family="Helvetica,sans-Serif" font-size="32.00" fill="#29235c"> </text>
<text text-anchor="start" x="1453.76" y="-958.29" font-family="Helvetica,sans-Serif" font-weight="bold" font-size="32.00" fill="#29235c">(!)</text>
<polygon fill="none" stroke="#29235c" stroke-width="2" points="1012.14,-936.09 1012.14,-1238.09 1495.14,-1238.09 1495.14,-936.09 1012.14,-936.09"/>
</g>
<!-- tabelaPedidosItens&#45;&gt;tabelaPedidos -->
<!-- tabelaPedidosItens&#45;&gt;tabelaPedidos -->
<g id="edge10" class="edge">
<title>tabelaPedidosItens:e&#45;&gt;tabelaPedidos:w</title>
<path fill="none" stroke="#29235c" stroke-width="3" d="M718.44,-892.09C887.92,-892.09 841.63,-1136.74 1002.27,-1146.78"/>
<polygon fill="#29235c" stroke="#29235c" stroke-width="3" points="1002.54,-1150.28 1012.64,-1147.09 1002.75,-1143.29 1002.54,-1150.28"/>
<text text-anchor="middle" x="1003.74" y="-1156.69" font-family="Helvetica,sans-Serif" font-size="32.00" fill="#29235c">1</text>
<text text-anchor="middle" x="724.66" y="-901.69" font-family="Helvetica,sans-Serif" font-size="32.00" fill="#29235c">*</text>
</g>
<!-- tabelaVariantes -->
<g id="tabelaVariantes" class="node">
<title>tabelaVariantes</title>
<ellipse fill="none" stroke="black" stroke-width="0" cx="1253.64" cy="-427.09" rx="374.53" ry="427.19"/>
<polygon fill="#1d71b8" stroke="transparent" points="990.64,-667.09 990.64,-727.09 1516.64,-727.09 1516.64,-667.09 990.64,-667.09"/>
<polygon fill="none" stroke="#29235c" points="990.64,-667.09 990.64,-727.09 1516.64,-727.09 1516.64,-667.09 990.64,-667.09"/>
<text text-anchor="start" x="1080.24" y="-688.29" font-family="Helvetica,sans-Serif" font-weight="bold" font-size="32.00" fill="#ffffff"> &#160;&#160;&#160;&#160;&#160;&#160;tabelaVariantes &#160;&#160;&#160;&#160;&#160;&#160;</text>
<polygon fill="#e7e2dd" stroke="transparent" points="990.64,-607.09 990.64,-667.09 1516.64,-667.09 1516.64,-607.09 990.64,-607.09"/>
<polygon fill="none" stroke="#29235c" points="990.64,-607.09 990.64,-667.09 1516.64,-667.09 1516.64,-607.09 990.64,-607.09"/>
<text text-anchor="start" x="1001.64" y="-628.29" font-family="Helvetica,sans-Serif" font-weight="bold" font-size="32.00" fill="#29235c">idVariantes</text>
<text text-anchor="start" x="1161.67" y="-628.29" font-family="Helvetica,sans-Serif" font-size="32.00" fill="#29235c"> &#160;&#160;&#160;</text>
<text text-anchor="start" x="1406.08" y="-628.29" font-family="Helvetica,sans-Serif" font-style="italic" font-size="32.00" fill="#29235c">uuid</text>
<text text-anchor="start" x="1466.55" y="-628.29" font-family="Helvetica,sans-Serif" font-size="32.00" fill="#29235c"> </text>
<text text-anchor="start" x="1475.44" y="-628.29" font-family="Helvetica,sans-Serif" font-weight="bold" font-size="32.00" fill="#29235c">(!)</text>
<polygon fill="#e7e2dd" stroke="transparent" points="990.64,-547.09 990.64,-607.09 1516.64,-607.09 1516.64,-547.09 990.64,-547.09"/>
<polygon fill="none" stroke="#29235c" points="990.64,-547.09 990.64,-607.09 1516.64,-607.09 1516.64,-547.09 990.64,-547.09"/>
<text text-anchor="start" x="1001.64" y="-567.29" font-family="Helvetica,sans-Serif" font-size="32.00" fill="#29235c">keyProdutos &#160;&#160;&#160;</text>
<text text-anchor="start" x="1406.08" y="-568.29" font-family="Helvetica,sans-Serif" font-style="italic" font-size="32.00" fill="#29235c">uuid</text>
<text text-anchor="start" x="1466.55" y="-568.29" font-family="Helvetica,sans-Serif" font-size="32.00" fill="#29235c"> </text>
<text text-anchor="start" x="1475.44" y="-568.29" font-family="Helvetica,sans-Serif" font-weight="bold" font-size="32.00" fill="#29235c">(!)</text>
<polygon fill="#e7e2dd" stroke="transparent" points="990.64,-487.09 990.64,-547.09 1516.64,-547.09 1516.64,-487.09 990.64,-487.09"/>
<polygon fill="none" stroke="#29235c" points="990.64,-487.09 990.64,-547.09 1516.64,-547.09 1516.64,-487.09 990.64,-487.09"/>
<text text-anchor="start" x="1001.64" y="-507.29" font-family="Helvetica,sans-Serif" font-size="32.00" fill="#29235c">campoSku &#160;&#160;&#160;</text>
<text text-anchor="start" x="1285.2" y="-508.29" font-family="Helvetica,sans-Serif" font-style="italic" font-size="32.00" fill="#29235c">varchar(100)</text>
<text text-anchor="start" x="1466.55" y="-508.29" font-family="Helvetica,sans-Serif" font-size="32.00" fill="#29235c"> </text>
<text text-anchor="start" x="1475.44" y="-508.29" font-family="Helvetica,sans-Serif" font-weight="bold" font-size="32.00" fill="#29235c">(!)</text>
<polygon fill="#e7e2dd" stroke="transparent" points="990.64,-427.09 990.64,-487.09 1516.64,-487.09 1516.64,-427.09 990.64,-427.09"/>
<polygon fill="none" stroke="#29235c" points="990.64,-427.09 990.64,-487.09 1516.64,-487.09 1516.64,-427.09 990.64,-427.09"/>
<text text-anchor="start" x="1001.64" y="-447.29" font-family="Helvetica,sans-Serif" font-size="32.00" fill="#29235c">campoAtributos &#160;&#160;&#160;</text>
<text text-anchor="start" x="1390.08" y="-448.29" font-family="Helvetica,sans-Serif" font-style="italic" font-size="32.00" fill="#29235c">jsonb</text>
<text text-anchor="start" x="1466.55" y="-448.29" font-family="Helvetica,sans-Serif" font-size="32.00" fill="#29235c"> </text>
<text text-anchor="start" x="1475.44" y="-448.29" font-family="Helvetica,sans-Serif" font-weight="bold" font-size="32.00" fill="#29235c">(!)</text>
<polygon fill="#e7e2dd" stroke="transparent" points="990.64,-367.09 990.64,-427.09 1516.64,-427.09 1516.64,-367.09 990.64,-367.09"/>
<polygon fill="none" stroke="#29235c" points="990.64,-367.09 990.64,-427.09 1516.64,-427.09 1516.64,-367.09 990.64,-367.09"/>
<text text-anchor="start" x="1001.64" y="-387.29" font-family="Helvetica,sans-Serif" font-size="32.00" fill="#29235c">campoPreco &#160;&#160;&#160;</text>
<text text-anchor="start" x="1260.32" y="-388.29" font-family="Helvetica,sans-Serif" font-style="italic" font-size="32.00" fill="#29235c">numeric(12, 2)</text>
<text text-anchor="start" x="1466.55" y="-388.29" font-family="Helvetica,sans-Serif" font-size="32.00" fill="#29235c"> </text>
<text text-anchor="start" x="1475.44" y="-388.29" font-family="Helvetica,sans-Serif" font-weight="bold" font-size="32.00" fill="#29235c">(!)</text>
<polygon fill="#e7e2dd" stroke="transparent" points="990.64,-307.09 990.64,-367.09 1516.64,-367.09 1516.64,-307.09 990.64,-307.09"/>
<polygon fill="none" stroke="#29235c" points="990.64,-307.09 990.64,-367.09 1516.64,-367.09 1516.64,-307.09 990.64,-307.09"/>
<text text-anchor="start" x="1001.27" y="-327.29" font-family="Helvetica,sans-Serif" font-size="32.00" fill="#29235c">campoPrecoCheio &#160;&#160;&#160;</text>
<text text-anchor="start" x="1299.52" y="-328.29" font-family="Helvetica,sans-Serif" font-style="italic" font-size="32.00" fill="#29235c">numeric(12, 2)</text>
<polygon fill="#e7e2dd" stroke="transparent" points="990.64,-247.09 990.64,-307.09 1516.64,-307.09 1516.64,-247.09 990.64,-247.09"/>
<polygon fill="none" stroke="#29235c" points="990.64,-247.09 990.64,-307.09 1516.64,-307.09 1516.64,-247.09 990.64,-247.09"/>
<text text-anchor="start" x="1001.64" y="-267.29" font-family="Helvetica,sans-Serif" font-size="32.00" fill="#29235c">campoEstoque &#160;&#160;&#160;</text>
<text text-anchor="start" x="1368.75" y="-268.29" font-family="Helvetica,sans-Serif" font-style="italic" font-size="32.00" fill="#29235c">integer</text>
<text text-anchor="start" x="1466.55" y="-268.29" font-family="Helvetica,sans-Serif" font-size="32.00" fill="#29235c"> </text>
<text text-anchor="start" x="1475.44" y="-268.29" font-family="Helvetica,sans-Serif" font-weight="bold" font-size="32.00" fill="#29235c">(!)</text>
<polygon fill="#e7e2dd" stroke="transparent" points="990.64,-187.09 990.64,-247.09 1516.64,-247.09 1516.64,-187.09 990.64,-187.09"/>
<polygon fill="none" stroke="#29235c" points="990.64,-187.09 990.64,-247.09 1516.64,-247.09 1516.64,-187.09 990.64,-187.09"/>
<text text-anchor="start" x="1001.64" y="-207.29" font-family="Helvetica,sans-Serif" font-size="32.00" fill="#29235c">campoAtivo &#160;&#160;&#160;</text>
<text text-anchor="start" x="1352.71" y="-208.29" font-family="Helvetica,sans-Serif" font-style="italic" font-size="32.00" fill="#29235c">boolean</text>
<text text-anchor="start" x="1466.55" y="-208.29" font-family="Helvetica,sans-Serif" font-size="32.00" fill="#29235c"> </text>
<text text-anchor="start" x="1475.44" y="-208.29" font-family="Helvetica,sans-Serif" font-weight="bold" font-size="32.00" fill="#29235c">(!)</text>
<polygon fill="#e7e2dd" stroke="transparent" points="990.64,-127.09 990.64,-187.09 1516.64,-187.09 1516.64,-127.09 990.64,-127.09"/>
<polygon fill="none" stroke="#29235c" points="990.64,-127.09 990.64,-187.09 1516.64,-187.09 1516.64,-127.09 990.64,-127.09"/>
<text text-anchor="start" x="1001.64" y="-147.29" font-family="Helvetica,sans-Serif" font-size="32.00" fill="#29235c">campoCriadoEm &#160;&#160;&#160;</text>
<text text-anchor="start" x="1318.99" y="-148.29" font-family="Helvetica,sans-Serif" font-style="italic" font-size="32.00" fill="#29235c">timestamp</text>
<text text-anchor="start" x="1466.55" y="-148.29" font-family="Helvetica,sans-Serif" font-size="32.00" fill="#29235c"> </text>
<text text-anchor="start" x="1475.44" y="-148.29" font-family="Helvetica,sans-Serif" font-weight="bold" font-size="32.00" fill="#29235c">(!)</text>
<polygon fill="none" stroke="#29235c" stroke-width="2" points="989.64,-126.09 989.64,-728.09 1517.64,-728.09 1517.64,-126.09 989.64,-126.09"/>
</g>
<!-- tabelaPedidosItens&#45;&gt;tabelaVariantes -->
<!-- tabelaPedidosItens&#45;&gt;tabelaVariantes -->
<g id="edge12" class="edge">
<title>tabelaPedidosItens:e&#45;&gt;tabelaVariantes:w</title>
<path fill="none" stroke="#29235c" stroke-width="3" d="M718.44,-832.09C863.41,-832.09 842.29,-646.13 979.48,-637.41"/>
<polygon fill="#29235c" stroke="#29235c" stroke-width="3" points="979.75,-640.9 989.64,-637.09 979.53,-633.91 979.75,-640.9"/>
<text text-anchor="middle" x="998.53" y="-637.09" font-family="Helvetica,sans-Serif" font-size="32.00" fill="#29235c">1</text>
<text text-anchor="middle" x="724.66" y="-841.69" font-family="Helvetica,sans-Serif" font-size="32.00" fill="#29235c">*</text>
</g>
<!-- tabelaVariantes&#45;&gt;tabelaProdutos -->
<!-- tabelaVariantes&#45;&gt;tabelaProdutos -->
<g id="edge14" class="edge">
<title>tabelaVariantes:e&#45;&gt;tabelaProdutos:w</title>
<path fill="none" stroke="#29235c" stroke-width="3" d="M1517.64,-577.09C1762.78,-577.09 1524.63,-1637.41 1756.08,-1667.44"/>
<polygon fill="#29235c" stroke="#29235c" stroke-width="3" points="1756.15,-1670.95 1766.35,-1668.09 1756.59,-1663.97 1756.15,-1670.95"/>
<text text-anchor="middle" x="1757.46" y="-1677.69" font-family="Helvetica,sans-Serif" font-size="32.00" fill="#29235c">1</text>
<text text-anchor="middle" x="1523.86" y="-548.29" font-family="Helvetica,sans-Serif" font-size="32.00" fill="#29235c">*</text>
</g>
</g>
</svg>
